<svg xmlns="http://www.w3.org/2000/svg" xmlns:xlink="http://www.w3.org/1999/xlink" xmlns:inkscape="http://www.inkscape.org/namespaces/inkscape" version="1.1" width="220.186" height="89.682" viewBox="0 0 220.186 89.682">
<rect x="0" y="0" width="100%" height="100%" fill="white"/>
<path transform="matrix(1,0,0,-1,7.087,212.57199)" d="M20.50836 187.08896H-2.70306C-4.904 187.08896-6.68817 185.3048-6.68817 183.10385V140.04973C-6.68817 137.84879-4.904 136.06462-2.70306 136.06462H20.50836C22.7093 136.06462 24.49347 137.84879 24.49347 140.04973V183.10385C24.49347 185.3048 22.7093 187.08896 20.50836 187.08896ZM-6.68817 136.06462" fill="#d7e5f2"/>
<path transform="matrix(1,0,0,-1,7.087,212.57199)" stroke-width=".79701" stroke-linecap="butt" stroke-miterlimit="10" stroke-linejoin="miter" fill="none" stroke="#367dbd" d="M20.50836 187.08896H-2.70306C-4.904 187.08896-6.68817 185.3048-6.68817 183.10385V140.04973C-6.68817 137.84879-4.904 136.06462-2.70306 136.06462H20.50836C22.7093 136.06462 24.49347 137.84879 24.49347 140.04973V183.10385C24.49347 185.3048 22.7093 187.08896 20.50836 187.08896ZM-6.68817 136.06462"/>
<text xml:space="preserve" transform="matrix(1 0 -0 1 -.0000009536743 89.68199)" font-size="6.9738" font-family="NimbusRomNo9L"><tspan y="-36.355" x="10.581 15.197657 17.136374">ViT</tspan></text>
<path transform="matrix(1,0,0,-1,7.087,212.57199)" d="M60.99115 187.08896H37.77971C35.57877 187.08896 33.7946 185.3048 33.7946 183.10385V140.04973C33.7946 137.84879 35.57877 136.06462 37.77971 136.06462H60.99115C63.1921 136.06462 64.97626 137.84879 64.97626 140.04973V183.10385C64.97626 185.3048 63.1921 187.08896 60.99115 187.08896ZM33.7946 136.06462" fill="#d7e5f2"/>
<path transform="matrix(1,0,0,-1,7.087,212.57199)" stroke-width=".79701" stroke-linecap="butt" stroke-miterlimit="10" stroke-linejoin="miter" fill="none" stroke="#367dbd" d="M60.99115 187.08896H37.77971C35.57877 187.08896 33.7946 185.3048 33.7946 183.10385V140.04973C33.7946 137.84879 35.57877 136.06462 37.77971 136.06462H60.99115C63.1921 136.06462 64.97626 137.84879 64.97626 140.04973V183.10385C64.97626 185.3048 63.1921 187.08896 60.99115 187.08896ZM33.7946 136.06462"/>
<text xml:space="preserve" transform="matrix(1 0 -0 1 -.0000038146974 89.68199)" font-size="6.9738" font-family="NimbusRomNo9L"><tspan y="-37.075" x="45.24 50.275087 53.761987 56.858354 60.345254 62.28397 65.38034">Adapter</tspan></text>
<path transform="matrix(1,0,0,-1,7.087,212.57199)" d="M101.47394 187.08896H78.2625C76.06155 187.08896 74.27739 185.3048 74.27739 183.10385V140.04973C74.27739 137.84879 76.06155 136.06462 78.2625 136.06462H101.47394C103.67488 136.06462 105.45905 137.84879 105.45905 140.04973V183.10385C105.45905 185.3048 103.67488 187.08896 101.47394 187.08896ZM74.27739 136.06462" fill="#d7e5f2"/>
<path transform="matrix(1,0,0,-1,7.087,212.57199)" stroke-width=".79701" stroke-linecap="butt" stroke-miterlimit="10" stroke-linejoin="miter" fill="none" stroke="#367dbd" d="M101.47394 187.08896H78.2625C76.06155 187.08896 74.27739 185.3048 74.27739 183.10385V140.04973C74.27739 137.84879 76.06155 136.06462 78.2625 136.06462H101.47394C103.67488 136.06462 105.45905 137.84879 105.45905 140.04973V183.10385C105.45905 185.3048 103.67488 187.08896 101.47394 187.08896ZM74.27739 136.06462"/>
<text xml:space="preserve" transform="matrix(1 0 -0 1 0 89.68199)" font-size="6.9738" font-family="NimbusRomNo9L"><tspan y="-40.34" x="89.837 93.71443 95.653148 99.03544 102.131809">Pixel</tspan><tspan y="-32.37" x="85.144 90.179088 93.27545 96.37182 99.85872 103.34562 106.441989">Decoder</tspan></text>
<path transform="matrix(1,0,0,-1,7.087,212.57199)" d="M141.95674 187.08896H118.74529C116.54434 187.08896 114.76018 185.3048 114.76018 183.10385V140.04973C114.76018 137.84879 116.54434 136.06462 118.74529 136.06462H141.95674C144.15769 136.06462 145.94185 137.84879 145.94185 140.04973V183.10385C145.94185 185.3048 144.15769 187.08896 141.95674 187.08896ZM114.76018 136.06462" fill="#d7e5f2"/>
<path transform="matrix(1,0,0,-1,7.087,212.57199)" stroke-width=".79701" stroke-linecap="butt" stroke-miterlimit="10" stroke-linejoin="miter" fill="none" stroke="#367dbd" d="M141.95674 187.08896H118.74529C116.54434 187.08896 114.76018 185.3048 114.76018 183.10385V140.04973C114.76018 137.84879 116.54434 136.06462 118.74529 136.06462H141.95674C144.15769 136.06462 145.94185 137.84879 145.94185 140.04973V183.10385C145.94185 185.3048 144.15769 187.08896 141.95674 187.08896ZM114.76018 136.06462"/>
<text xml:space="preserve" transform="matrix(1 0 -0 1 0 89.681987)" font-size="6.9738" font-family="NimbusRomNo9L"><tspan y="-40.434" x="133.367 137.62799">TF</tspan><tspan y="-32.463998" x="126.09701 131.1321 134.22847 137.32485 140.81174 144.29863 147.395">Decoder</tspan></text>
<path transform="matrix(1,0,0,-1,7.087,212.57199)" d="M198.03038 187.08896H174.81893C172.61798 187.08896 170.83382 185.3048 170.83382 183.10385V140.04973C170.83382 137.84879 172.61798 136.06462 174.81893 136.06462H198.03038C200.23131 136.06462 202.01549 137.84879 202.01549 140.04973V183.10385C202.01549 185.3048 200.23131 187.08896 198.03038 187.08896ZM170.83382 136.06462" fill="#ffe2cc"/>
<path transform="matrix(1,0,0,-1,7.087,212.57199)" stroke-width=".79701" stroke-linecap="butt" stroke-miterlimit="10" stroke-linejoin="miter" fill="none" stroke="#ff6d01" d="M198.03038 187.08896H174.81893C172.61798 187.08896 170.83382 185.3048 170.83382 183.10385V140.04973C170.83382 137.84879 172.61798 136.06462 174.81893 136.06462H198.03038C200.23131 136.06462 202.01549 137.84879 202.01549 140.04973V183.10385C202.01549 185.3048 200.23131 187.08896 198.03038 187.08896ZM170.83382 136.06462"/>
<text xml:space="preserve" transform="matrix(1 0 -0 1 .000015258789 89.68199)" font-size="6.9738" font-family="NimbusRomNo9L"><tspan y="-36.355" x="188.101 192.71765 194.65637">ViT</tspan></text>
<text xml:space="preserve" transform="matrix(1 0 -0 1 0 89.68199)" font-size="6.9738" font-family="NimbusRomNo9L"><tspan y="-72.119" x="27.517 29.839276 35.264894 38.36126 41.84816">Image</tspan></text>
<path transform="matrix(1,0,0,-1,7.087,212.57199)" stroke-width=".3985" stroke-linecap="butt" stroke-miterlimit="10" stroke-linejoin="miter" fill="none" stroke="#000000" d="M39.05339 196.52677H49.38542V189.48"/>
<path transform="matrix(0,1,1,0,56.47242,23.091996)" d="M1.99252 0-1.19551 1.59401 0 0-1.19551-1.59401"/>
<path transform="matrix(1,0,0,-1,7.087,212.57199)" stroke-width=".3985" stroke-linecap="butt" stroke-miterlimit="10" stroke-linejoin="miter" fill="none" stroke="#000000" d="M19.23466 196.52677H8.90263V189.48"/>
<path transform="matrix(0,1,1,0,15.98963,23.091996)" d="M1.99252 0-1.19551 1.59401 0 0-1.19551-1.59401"/>
<path transform="matrix(1,0,0,-1,7.087,212.57199)" stroke-width=".3985" stroke-linecap="butt" stroke-miterlimit="10" stroke-linejoin="miter" fill="none" stroke="#000000" d="M33.39609 181.41948H26.88449"/>
<path transform="matrix(-1,-0,0,1,33.97149,31.152512)" d="M1.99252 0-1.19551 1.59401 0 0-1.19551-1.59401"/>
<path transform="matrix(1,0,0,-1,7.087,212.57199)" stroke-width=".3985" stroke-linecap="butt" stroke-miterlimit="10" stroke-linejoin="miter" fill="none" stroke="#000000" d="M24.89197 178.58506H31.40356"/>
<path transform="matrix(1,0,0,-1,38.490564,33.98694)" d="M1.99252 0-1.19551 1.59401 0 0-1.19551-1.59401"/>
<path transform="matrix(1,0,0,-1,7.087,212.57199)" stroke-width=".3985" stroke-linecap="butt" stroke-miterlimit="10" stroke-linejoin="miter" fill="none" stroke="#000000" d="M33.39609 169.14534H26.88449"/>
<path transform="matrix(-1,-0,0,1,33.97149,43.42665)" d="M1.99252 0-1.19551 1.59401 0 0-1.19551-1.59401"/>
<path transform="matrix(1,0,0,-1,7.087,212.57199)" stroke-width=".3985" stroke-linecap="butt" stroke-miterlimit="10" stroke-linejoin="miter" fill="none" stroke="#000000" d="M24.89197 166.31092H31.40356"/>
<path transform="matrix(1,0,0,-1,38.490564,46.261079)" d="M1.99252 0-1.19551 1.59401 0 0-1.19551-1.59401"/>
<path transform="matrix(1,0,0,-1,7.087,212.57199)" stroke-width=".3985" stroke-linecap="butt" stroke-miterlimit="10" stroke-linejoin="miter" fill="none" stroke="#000000" d="M33.39609 156.84267H26.88449"/>
<path transform="matrix(-1,-0,0,1,33.97149,55.729326)" d="M1.99252 0-1.19551 1.59401 0 0-1.19551-1.59401"/>
<path transform="matrix(1,0,0,-1,7.087,212.57199)" stroke-width=".3985" stroke-linecap="butt" stroke-miterlimit="10" stroke-linejoin="miter" fill="none" stroke="#000000" d="M24.89197 154.00824H31.40356"/>
<path transform="matrix(1,0,0,-1,38.490564,58.56375)" d="M1.99252 0-1.19551 1.59401 0 0-1.19551-1.59401"/>
<path transform="matrix(1,0,0,-1,7.087,212.57199)" stroke-width=".3985" stroke-linecap="butt" stroke-miterlimit="10" stroke-linejoin="miter" fill="none" stroke="#000000" d="M33.39609 144.56853H26.88449"/>
<path transform="matrix(-1,-0,0,1,33.97149,68.00346)" d="M1.99252 0-1.19551 1.59401 0 0-1.19551-1.59401"/>
<path transform="matrix(1,0,0,-1,7.087,212.57199)" stroke-width=".3985" stroke-linecap="butt" stroke-miterlimit="10" stroke-linejoin="miter" fill="none" stroke="#000000" d="M24.89197 141.7341H31.40356"/>
<path transform="matrix(1,0,0,-1,38.490564,70.83789)" d="M1.99252 0-1.19551 1.59401 0 0-1.19551-1.59401"/>
<path transform="matrix(1,0,0,-1,7.087,212.57199)" stroke-width=".3985" stroke-linecap="butt" stroke-miterlimit="10" stroke-linejoin="miter" fill="none" stroke="#000000" d="M65.37476 180.00205H71.88637"/>
<path transform="matrix(1,0,0,-1,78.973369,32.569948)" d="M1.99252 0-1.19551 1.59401 0 0-1.19551-1.59401"/>
<path transform="matrix(1,0,0,-1,7.087,212.57199)" stroke-width=".3985" stroke-linecap="butt" stroke-miterlimit="10" stroke-linejoin="miter" fill="none" stroke="#000000" d="M65.37476 167.7279H71.88637"/>
<path transform="matrix(1,0,0,-1,78.973369,44.844087)" d="M1.99252 0-1.19551 1.59401 0 0-1.19551-1.59401"/>
<path transform="matrix(1,0,0,-1,7.087,212.57199)" stroke-width=".3985" stroke-linecap="butt" stroke-miterlimit="10" stroke-linejoin="miter" fill="none" stroke="#000000" d="M65.37476 155.42568H71.88637"/>
<path transform="matrix(1,0,0,-1,78.973369,57.146318)" d="M1.99252 0-1.19551 1.59401 0 0-1.19551-1.59401"/>
<path transform="matrix(1,0,0,-1,7.087,212.57199)" stroke-width=".3985" stroke-linecap="butt" stroke-miterlimit="10" stroke-linejoin="miter" fill="none" stroke="#000000" d="M65.37476 143.15154H71.88637"/>
<path transform="matrix(1,0,0,-1,78.973369,69.420459)" d="M1.99252 0-1.19551 1.59401 0 0-1.19551-1.59401"/>
<path transform="matrix(1,0,0,-1,7.087,212.57199)" stroke-width=".3985" stroke-linecap="butt" stroke-miterlimit="10" stroke-linejoin="miter" fill="none" stroke="#000000" d="M105.85756 180.00205H112.36916"/>
<path transform="matrix(1,0,0,-1,119.45616,32.569948)" d="M1.99252 0-1.19551 1.59401 0 0-1.19551-1.59401"/>
<path transform="matrix(1,0,0,-1,7.087,212.57199)" stroke-width=".3985" stroke-linecap="butt" stroke-miterlimit="10" stroke-linejoin="miter" fill="none" stroke="#000000" d="M105.85756 167.7279H112.36916"/>
<path transform="matrix(1,0,0,-1,119.45616,44.844087)" d="M1.99252 0-1.19551 1.59401 0 0-1.19551-1.59401"/>
<path transform="matrix(1,0,0,-1,7.087,212.57199)" stroke-width=".3985" stroke-linecap="butt" stroke-miterlimit="10" stroke-linejoin="miter" fill="none" stroke="#000000" d="M105.85756 155.42568H112.36916"/>
<path transform="matrix(1,0,0,-1,119.45616,57.146318)" d="M1.99252 0-1.19551 1.59401 0 0-1.19551-1.59401"/>
<path transform="matrix(1,0,0,-1,7.087,212.57199)" stroke-width=".3985" stroke-linecap="butt" stroke-miterlimit="10" stroke-linejoin="miter" fill="none" stroke="#000000" d="M105.85756 143.15154H112.36916"/>
<path transform="matrix(1,0,0,-1,119.45616,69.420459)" d="M1.99252 0-1.19551 1.59401 0 0-1.19551-1.59401"/>
<text xml:space="preserve" transform="matrix(1 0 -0 1 -.0000076293949 89.682)" font-size="6.9738" font-family="NimbusRomNo9L"><tspan y="-71.857" x="126.592 131.62709 135.11399 138.21036 140.53264 142.47136 145.56774">Queries</tspan></text>
<path transform="matrix(1,0,0,-1,7.087,212.57199)" stroke-width=".3985" stroke-linecap="butt" stroke-miterlimit="10" stroke-linejoin="miter" fill="none" stroke="#000000" d="M130.35102 192.30637V189.48"/>
<path transform="matrix(0,1,1,0,137.43802,23.091996)" d="M1.99252 0-1.19551 1.59401 0 0-1.19551-1.59401"/>
<text xml:space="preserve" transform="matrix(1 0 -0 1 0 89.68199)" font-size="6.9738" font-family="NimbusRomNo9L"><tspan y="-72.119" x="184.795 187.11728 192.5429 195.63927 199.12616">Image</tspan></text>
<path transform="matrix(1,0,0,-1,7.087,212.57199)" stroke-width=".3985" stroke-linecap="butt" stroke-miterlimit="10" stroke-linejoin="miter" fill="none" stroke="#000000" d="M186.42465 192.30637V192.30637 189.48"/>
<path transform="matrix(0,1,1,0,193.51166,23.091996)" d="M1.99252 0-1.19551 1.59401 0 0-1.19551-1.59401"/>
<text xml:space="preserve" transform="matrix(0 -1 1 0 186.759 243.437)" font-size="6.9738" font-family="NimbusRomNo9L"><tspan y="-16.502" x="170.257 175.29209 178.77898 181.87535 184.19763 186.13636 189.23273">Queries</tspan></text>
<path transform="matrix(1,0,0,-1,7.087,212.57199)" stroke-width=".3985" stroke-linecap="butt" stroke-miterlimit="10" stroke-linejoin="miter" fill="none" stroke="#000000" d="M165.61641 150.23824H168.4428"/>
<path transform="matrix(1,0,0,-1,175.5298,62.333757)" d="M1.99252 0-1.19551 1.59401 0 0-1.19551-1.59401"/>
<text xml:space="preserve" transform="matrix(1 0 -0 1 0 89.681987)" font-size="6.9738" font-family="NimbusRomNo9L"><tspan y="-1.465" x="115.614 121.813709 124.91007 127.62288 131.10977 135.56604 141.24272 145.89424 147.83296 150.92934 153.64215 156.35497 159.45134">Masks+Classes</tspan></text>
<path transform="matrix(1,0,0,-1,7.087,212.57199)" stroke-width=".3985" stroke-linecap="butt" stroke-miterlimit="10" stroke-linejoin="miter" fill="none" stroke="#000000" d="M130.35102 135.6661V132.27268"/>
<path transform="matrix(0,1,1,0,137.43802,80.29932)" d="M1.99252 0-1.19551 1.59401 0 0-1.19551-1.59401"/>
<text xml:space="preserve" transform="matrix(1 0 -0 1 0 89.681987)" font-size="6.9738" font-family="NimbusRomNo9L"><tspan y="-1.465" x="171.687 177.8867 180.98308 183.69589 187.18279 191.63906 197.31574 201.96726 203.90598 207.00235 209.71517 212.42798 215.52436">Masks+Classes</tspan></text>
<path transform="matrix(1,0,0,-1,7.087,212.57199)" stroke-width=".3985" stroke-linecap="butt" stroke-miterlimit="10" stroke-linejoin="miter" fill="none" stroke="#000000" d="M186.42465 135.6661V132.27268"/>
<path transform="matrix(0,1,1,0,193.51166,80.29932)" d="M1.99252 0-1.19551 1.59401 0 0-1.19551-1.59401"/>
<path transform="matrix(1,0,0,-1,7.087,212.57199)" stroke-width=".3985" stroke-linecap="butt" stroke-dasharray="2.98883,2.98883" stroke-miterlimit="10" stroke-linejoin="miter" fill="none" stroke="#7f807f" d="M156.70568 123.09116V202.46234"/>
<text xml:space="preserve" transform="matrix(1 0 -0 1 0 89.682)" font-size="7.9701" font-family="NimbusRomNo9L" font-weight="bold"><tspan y="-80.87" x="16.73 22.18952 24.405209 28.988017 31.64206 37.396474 41.82785 45.8129 50.244279 52.898324 56.437047 61.968294 68.50377 76.02754 80.01259 83.11296 87.544338 91.52938 96.19986 100.184909 103.72363 110.362728 113.90145 119.4327 122.08675 126.07179 130.05684 134.04189">ViT-Adapter+Mask2Former[1,2]</tspan></text>
<text xml:space="preserve" transform="matrix(1 0 -0 1 0 89.682)" font-size="7.9701" font-family="NimbusRomNo9L" font-weight="bold"><tspan y="-80.87" x="170.153 175.46906 179.4541 186.97788 194.28646 196.94049 203.14124 207.57262 211.11135 214.21172">EoMT(Ours)</tspan></text>
</svg>
