<svg xmlns="http://www.w3.org/2000/svg" xmlns:xlink="http://www.w3.org/1999/xlink" xmlns:inkscape="http://www.inkscape.org/namespaces/inkscape" version="1.1" width="351.046" height="219.441" viewBox="0 0 351.046 219.441">
<rect x="0" y="0" width="100%" height="100%" fill="white"/>
<defs>
<clipPath id="clip_0">
<path transform="matrix(1,0,0,-1,-253.158,190.827)" d="M284.5093 0H604.0116V188.88913H284.5093Z"/>
</clipPath>
</defs>
<path transform="matrix(1,0,0,-1,-253.158,190.827)" stroke-width=".3985" stroke-linecap="butt" stroke-dasharray="2.98883,2.98883" stroke-miterlimit="10" stroke-linejoin="miter" fill="none" stroke="#bfbfbf" d="M307.40473 0V188.88913M378.543 0V188.88913M449.6719 0V188.88913M520.79458 0V188.88913M591.9219 0V188.88913"/>
<path transform="matrix(1,0,0,-1,-253.158,190.827)" stroke-width=".3985" stroke-linecap="butt" stroke-dasharray="2.98883,2.98883" stroke-miterlimit="10" stroke-linejoin="miter" fill="none" stroke="#bfbfbf" d="M284.5093 5.55556H604.0116M284.5093 50.00006H604.0116M284.5093 94.44456H604.0116M284.5093 138.88907H604.0116M284.5093 183.33358H604.0116"/>
<path transform="matrix(1,0,0,-1,-253.158,190.827)" stroke-width=".19925" stroke-linecap="butt" stroke-miterlimit="10" stroke-linejoin="miter" fill="none" stroke="#7f807f" d="M307.40473 0V4.25256M378.543 0V4.25256M449.6719 0V4.25256M520.79458 0V4.25256M591.9219 0V4.25256M307.40473 188.88913V184.63655M378.543 188.88913V184.63655M449.6719 188.88913V184.63655M520.79458 188.88913V184.63655M591.9219 188.88913V184.63655"/>
<path transform="matrix(1,0,0,-1,-253.158,190.827)" stroke-width=".19925" stroke-linecap="butt" stroke-miterlimit="10" stroke-linejoin="miter" fill="none" stroke="#7f807f" d="M284.5093 5.55556H288.75895M284.5093 50.00006H288.75895M284.5093 94.44456H288.75895M284.5093 138.88907H288.75895M284.5093 183.33358H288.75895M604.0116 5.55556H599.7619M604.0116 50.00006H599.7619M604.0116 94.44456H599.7619M604.0116 138.88907H599.7619M604.0116 183.33358H599.7619"/>
<path transform="matrix(1,0,0,-1,-253.158,190.827)" stroke-width=".3985" stroke-linecap="butt" stroke-miterlimit="10" stroke-linejoin="miter" fill="none" stroke="#000000" d="M284.5093 0V188.88913H604.0116V0H284.5093Z"/>
<text xml:space="preserve" transform="matrix(1 0 -0 1 .0000076293949 219.441)" font-size="11.9552" font-family="NimbusRomNo9L"><tspan y="-16.989" x="48.266 54.2436">20</tspan></text>
<text xml:space="preserve" transform="matrix(1 0 -0 1 0 219.441)" font-size="11.9552" font-family="NimbusRomNo9L"><tspan y="-16.989" x="119.403 125.3806">40</tspan></text>
<text xml:space="preserve" transform="matrix(1 0 -0 1 -.000015258789 219.441)" font-size="11.9552" font-family="NimbusRomNo9L"><tspan y="-16.989" x="190.531 196.5086">80</tspan></text>
<text xml:space="preserve" transform="matrix(1 0 -0 1 0 219.441)" font-size="11.9552" font-family="NimbusRomNo9L"><tspan y="-16.989" x="258.664 264.6416 270.6192">160</tspan></text>
<text xml:space="preserve" transform="matrix(1 0 -0 1 -.000030517579 219.441)" font-size="11.9552" font-family="NimbusRomNo9L"><tspan y="-16.989" x="329.79 335.7676 341.7452">320</tspan></text>
<text xml:space="preserve" transform="matrix(1 0 -0 1 .0000009536743 219.441)" font-size="11.9552" font-family="NimbusRomNo9L"><tspan y="-30.171" x="15.873 21.850602">42</tspan></text>
<text xml:space="preserve" transform="matrix(1 0 -0 1 .0000009536743 219.44101)" font-size="11.9552" font-family="NimbusRomNo9L"><tspan y="-74.624" x="15.873 21.850602">46</tspan></text>
<text xml:space="preserve" transform="matrix(1 0 -0 1 .0000009536743 219.441)" font-size="11.9552" font-family="NimbusRomNo9L"><tspan y="-119.068" x="15.873 21.850602">50</tspan></text>
<text xml:space="preserve" transform="matrix(1 0 -0 1 .0000009536743 219.441)" font-size="11.9552" font-family="NimbusRomNo9L"><tspan y="-163.511" x="15.873 21.850602">54</tspan></text>
<text xml:space="preserve" transform="matrix(1 0 -0 1 .0000009536743 219.441)" font-size="11.9552" font-family="NimbusRomNo9L"><tspan y="-207.955" x="15.873 21.850602">58</tspan></text>
<g clip-path="url(#clip_0)">
<path transform="matrix(1,0,0,-1,-253.158,190.827)" stroke-width="1.49442" stroke-linecap="butt" stroke-miterlimit="10" stroke-linejoin="miter" fill="none" stroke="#367dbd" d="M308.3082 180.37706"/>
<path transform="matrix(1,0,0,-1,-253.158,190.827)" stroke-width="1.49442" stroke-linecap="butt" stroke-miterlimit="10" stroke-linejoin="miter" fill="none" stroke="#367dbd" d="M345.80488 173.83112"/>
<path transform="matrix(1,0,0,-1,-253.158,190.827)" stroke-width="1.49442" stroke-linecap="butt" stroke-miterlimit="10" stroke-linejoin="miter" fill="none" stroke="#367dbd" d="M355.17475 143.01145"/>
<path transform="matrix(1,0,0,-1,-253.158,190.827)" stroke-width="1.49442" stroke-linecap="butt" stroke-miterlimit="10" stroke-linejoin="miter" fill="none" stroke="#367dbd" d="M359.6702 100.36102"/>
<path transform="matrix(1,0,0,-1,-253.158,190.827)" stroke-width="1.49442" stroke-linecap="butt" stroke-miterlimit="10" stroke-linejoin="miter" fill="none" stroke="#367dbd" d="M308.3082 180.37706 345.80488 173.83112 355.17475 143.01145 359.6702 100.36102"/>
<path transform="matrix(1,0,0,-1,-253.158,190.827)" stroke-width="1.49442" stroke-linecap="butt" stroke-miterlimit="10" stroke-linejoin="miter" fill="none" stroke="#ffb680" d="M365.14274 174.18585"/>
<path transform="matrix(1,0,0,-1,-253.158,190.827)" stroke-width="1.49442" stroke-linecap="butt" stroke-miterlimit="10" stroke-linejoin="miter" fill="none" stroke="#ffb680" d="M421.13487 163.73117"/>
<path transform="matrix(1,0,0,-1,-253.158,190.827)" stroke-width="1.49442" stroke-linecap="butt" stroke-miterlimit="10" stroke-linejoin="miter" fill="none" stroke="#ffb680" d="M476.79975 111.14458"/>
<path transform="matrix(1,0,0,-1,-253.158,190.827)" stroke-width="1.49442" stroke-linecap="butt" stroke-miterlimit="10" stroke-linejoin="miter" fill="none" stroke="#ffb680" d="M480.58433 50.89243"/>
<path transform="matrix(1,0,0,-1,-253.158,190.827)" stroke-width="1.49442" stroke-linecap="butt" stroke-dasharray="2.98883,1.99255" stroke-miterlimit="10" stroke-linejoin="miter" fill="none" stroke="#ffb680" d="M365.14274 174.18585 421.13487 163.73117 476.79975 111.14458 480.58433 50.89243"/>
<path transform="matrix(1,0,0,-1,-253.158,190.827)" stroke-width="1.49442" stroke-linecap="butt" stroke-miterlimit="10" stroke-linejoin="miter" fill="none" stroke="#ff6d01" d="M411.26707 172.59792"/>
<path transform="matrix(1,0,0,-1,-253.158,190.827)" stroke-width="1.49442" stroke-linecap="butt" stroke-miterlimit="10" stroke-linejoin="miter" fill="none" stroke="#ff6d01" d="M497.57817 161.39215"/>
<path transform="matrix(1,0,0,-1,-253.158,190.827)" stroke-width="1.49442" stroke-linecap="butt" stroke-miterlimit="10" stroke-linejoin="miter" fill="none" stroke="#ff6d01" d="M570.86318 100.65567"/>
<path transform="matrix(1,0,0,-1,-253.158,190.827)" stroke-width="1.49442" stroke-linecap="butt" stroke-miterlimit="10" stroke-linejoin="miter" fill="none" stroke="#ff6d01" d="M595.14749 35.30191"/>
<path transform="matrix(1,0,0,-1,-253.158,190.827)" stroke-width="1.49442" stroke-linecap="butt" stroke-miterlimit="10" stroke-linejoin="miter" fill="none" stroke="#ff6d01" d="M411.26707 172.59792 497.57817 161.39215 570.86318 100.65567 595.14749 35.30191"/>
</g>
<path transform="matrix(1,0,0,-1,-253.158,190.827)" d="M305.31938 177.38823H311.29704V183.36589H305.31938Z" fill="#367dbd"/>
<path transform="matrix(1,0,0,-1,-253.158,190.827)" stroke-width="1.49442" stroke-linecap="butt" stroke-miterlimit="10" stroke-linejoin="miter" fill="none" stroke="#367dbd" d="M305.31938 177.38823H311.29704V183.36589H305.31938Z"/>
<path transform="matrix(1,0,0,-1,-253.158,190.827)" stroke-width="1.49442" stroke-linecap="butt" stroke-miterlimit="10" stroke-linejoin="miter" fill="none" stroke="#367dbd" d=""/>
<path transform="matrix(1,0,0,-1,-253.158,190.827)" d="M348.7937 173.83112C348.7937 175.48183 347.45558 176.81995 345.80488 176.81995 344.15419 176.81995 342.81605 175.48183 342.81605 173.83112 342.81605 172.1804 344.15419 170.84229 345.80488 170.84229 347.45558 170.84229 348.7937 172.1804 348.7937 173.83112ZM345.80488 173.83112" fill="#367dbd"/>
<path transform="matrix(1,0,0,-1,-253.158,190.827)" stroke-width="1.49442" stroke-linecap="butt" stroke-miterlimit="10" stroke-linejoin="miter" fill="none" stroke="#367dbd" d="M348.7937 173.83112C348.7937 175.48183 347.45558 176.81995 345.80488 176.81995 344.15419 176.81995 342.81605 175.48183 342.81605 173.83112 342.81605 172.1804 344.15419 170.84229 345.80488 170.84229 347.45558 170.84229 348.7937 172.1804 348.7937 173.83112ZM345.80488 173.83112"/>
<path transform="matrix(1,0,0,-1,-253.158,190.827)" stroke-width="1.49442" stroke-linecap="butt" stroke-miterlimit="10" stroke-linejoin="miter" fill="none" stroke="#367dbd" d=""/>
<path transform="matrix(1,0,0,-1,-253.158,190.827)" d="M355.17475 146.00028 357.76316 141.51703H352.58634Z" fill="#367dbd"/>
<path transform="matrix(1,0,0,-1,-253.158,190.827)" stroke-width="1.49442" stroke-linecap="butt" stroke-miterlimit="10" stroke-linejoin="miter" fill="none" stroke="#367dbd" d="M355.17475 146.00028 357.76316 141.51703H352.58634Z"/>
<path transform="matrix(1,0,0,-1,-253.158,190.827)" stroke-width="1.49442" stroke-linecap="butt" stroke-miterlimit="10" stroke-linejoin="miter" fill="none" stroke="#367dbd" d=""/>
<path transform="matrix(1,0,0,-1,-253.158,190.827)" d="M359.6702 103.34985 361.91184 100.36102 359.6702 97.3722 357.42857 100.36102Z" fill="#367dbd"/>
<path transform="matrix(1,0,0,-1,-253.158,190.827)" stroke-width="1.49442" stroke-linecap="butt" stroke-miterlimit="10" stroke-linejoin="miter" fill="none" stroke="#367dbd" d="M359.6702 103.34985 361.91184 100.36102 359.6702 97.3722 357.42857 100.36102Z"/>
<path transform="matrix(1,0,0,-1,-253.158,190.827)" stroke-width="1.49442" stroke-linecap="butt" stroke-miterlimit="10" stroke-linejoin="miter" fill="none" stroke="#367dbd" d=""/>
<path transform="matrix(1,0,0,-1,-253.158,190.827)" d="M362.1539 171.19702H368.13157V177.17469H362.1539Z" fill="#ffb680"/>
<path transform="matrix(1,0,0,-1,-253.158,190.827)" stroke-width="1.49442" stroke-linecap="butt" stroke-miterlimit="10" stroke-linejoin="miter" fill="none" stroke="#ffb680" d="M362.1539 171.19702H368.13157V177.17469H362.1539Z"/>
<path transform="matrix(1,0,0,-1,-253.158,190.827)" stroke-width="1.49442" stroke-linecap="butt" stroke-miterlimit="10" stroke-linejoin="miter" fill="none" stroke="#ffb680" d=""/>
<path transform="matrix(1,0,0,-1,-253.158,190.827)" d="M424.1237 163.73117C424.1237 165.38188 422.78556 166.72 421.13487 166.72 419.48417 166.72 418.14604 165.38188 418.14604 163.73117 418.14604 162.08046 419.48417 160.74234 421.13487 160.74234 422.78556 160.74234 424.1237 162.08046 424.1237 163.73117ZM421.13487 163.73117" fill="#ffb680"/>
<path transform="matrix(1,0,0,-1,-253.158,190.827)" stroke-width="1.49442" stroke-linecap="butt" stroke-miterlimit="10" stroke-linejoin="miter" fill="none" stroke="#ffb680" d="M424.1237 163.73117C424.1237 165.38188 422.78556 166.72 421.13487 166.72 419.48417 166.72 418.14604 165.38188 418.14604 163.73117 418.14604 162.08046 419.48417 160.74234 421.13487 160.74234 422.78556 160.74234 424.1237 162.08046 424.1237 163.73117ZM421.13487 163.73117"/>
<path transform="matrix(1,0,0,-1,-253.158,190.827)" stroke-width="1.49442" stroke-linecap="butt" stroke-miterlimit="10" stroke-linejoin="miter" fill="none" stroke="#ffb680" d=""/>
<path transform="matrix(1,0,0,-1,-253.158,190.827)" d="M476.79975 114.1334 479.38816 109.65016H474.21134Z" fill="#ffb680"/>
<path transform="matrix(1,0,0,-1,-253.158,190.827)" stroke-width="1.49442" stroke-linecap="butt" stroke-miterlimit="10" stroke-linejoin="miter" fill="none" stroke="#ffb680" d="M476.79975 114.1334 479.38816 109.65016H474.21134Z"/>
<path transform="matrix(1,0,0,-1,-253.158,190.827)" stroke-width="1.49442" stroke-linecap="butt" stroke-miterlimit="10" stroke-linejoin="miter" fill="none" stroke="#ffb680" d=""/>
<path transform="matrix(1,0,0,-1,-253.158,190.827)" d="M480.58433 53.88126 482.82594 50.89243 480.58433 47.9036 478.3427 50.89243Z" fill="#ffb680"/>
<path transform="matrix(1,0,0,-1,-253.158,190.827)" stroke-width="1.49442" stroke-linecap="butt" stroke-miterlimit="10" stroke-linejoin="miter" fill="none" stroke="#ffb680" d="M480.58433 53.88126 482.82594 50.89243 480.58433 47.9036 478.3427 50.89243Z"/>
<path transform="matrix(1,0,0,-1,-253.158,190.827)" stroke-width="1.49442" stroke-linecap="butt" stroke-miterlimit="10" stroke-linejoin="miter" fill="none" stroke="#ffb680" d=""/>
<path transform="matrix(1,0,0,-1,-253.158,190.827)" d="M408.27824 169.60909H414.2559V175.58675H408.27824Z" fill="#ff6d01"/>
<path transform="matrix(1,0,0,-1,-253.158,190.827)" stroke-width="1.49442" stroke-linecap="butt" stroke-miterlimit="10" stroke-linejoin="miter" fill="none" stroke="#ff6d01" d="M408.27824 169.60909H414.2559V175.58675H408.27824Z"/>
<path transform="matrix(1,0,0,-1,-253.158,190.827)" stroke-width="1.49442" stroke-linecap="butt" stroke-miterlimit="10" stroke-linejoin="miter" fill="none" stroke="#ff6d01" d=""/>
<path transform="matrix(1,0,0,-1,-253.158,190.827)" d="M500.567 161.39215C500.567 163.04285 499.22886 164.38098 497.57817 164.38098 495.92744 164.38098 494.58934 163.04285 494.58934 161.39215 494.58934 159.74144 495.92744 158.40332 497.57817 158.40332 499.22886 158.40332 500.567 159.74144 500.567 161.39215ZM497.57817 161.39215" fill="#ff6d01"/>
<path transform="matrix(1,0,0,-1,-253.158,190.827)" stroke-width="1.49442" stroke-linecap="butt" stroke-miterlimit="10" stroke-linejoin="miter" fill="none" stroke="#ff6d01" d="M500.567 161.39215C500.567 163.04285 499.22886 164.38098 497.57817 164.38098 495.92744 164.38098 494.58934 163.04285 494.58934 161.39215 494.58934 159.74144 495.92744 158.40332 497.57817 158.40332 499.22886 158.40332 500.567 159.74144 500.567 161.39215ZM497.57817 161.39215"/>
<path transform="matrix(1,0,0,-1,-253.158,190.827)" stroke-width="1.49442" stroke-linecap="butt" stroke-miterlimit="10" stroke-linejoin="miter" fill="none" stroke="#ff6d01" d=""/>
<path transform="matrix(1,0,0,-1,-253.158,190.827)" d="M570.86318 103.6445 573.4516 99.16125H568.2748Z" fill="#ff6d01"/>
<path transform="matrix(1,0,0,-1,-253.158,190.827)" stroke-width="1.49442" stroke-linecap="butt" stroke-miterlimit="10" stroke-linejoin="miter" fill="none" stroke="#ff6d01" d="M570.86318 103.6445 573.4516 99.16125H568.2748Z"/>
<path transform="matrix(1,0,0,-1,-253.158,190.827)" stroke-width="1.49442" stroke-linecap="butt" stroke-miterlimit="10" stroke-linejoin="miter" fill="none" stroke="#ff6d01" d=""/>
<path transform="matrix(1,0,0,-1,-253.158,190.827)" d="M595.14749 38.29074 597.3891 35.30191 595.14749 32.31308 592.9058 35.30191Z" fill="#ff6d01"/>
<path transform="matrix(1,0,0,-1,-253.158,190.827)" stroke-width="1.49442" stroke-linecap="butt" stroke-miterlimit="10" stroke-linejoin="miter" fill="none" stroke="#ff6d01" d="M595.14749 38.29074 597.3891 35.30191 595.14749 32.31308 592.9058 35.30191Z"/>
<path transform="matrix(1,0,0,-1,-253.158,190.827)" stroke-width="1.49442" stroke-linecap="butt" stroke-miterlimit="10" stroke-linejoin="miter" fill="none" stroke="#ff6d01" d=""/>
<text xml:space="preserve" transform="matrix(1 0 -0 1 0 219.441)" font-size="11.9552" font-family="NimbusRomNo9L"><tspan y="-5.909" x="104.274 110.9211 114.902179 120.21028 129.51143 134.81954 142.45891 148.43651 153.74462 160.7145 165.36507 170.67317 175.98128 181.95888 187.93648 196.90288 200.88396 207.53105 214.17815 220.82524 227.79512 231.7762 235.09975 241.07735 250.04375 254.69432 260.00245 265.31056 268.6341 273.9422">Framespersecond(FPS)[logscale]</tspan></text>
<text xml:space="preserve" transform="matrix(0 -1 1 0 81.11001 161.18299)" font-size="11.9552" font-family="NimbusRomNo9L"><tspan y="-69.684" x="11.426 17.893763 23.201872 29.179472 35.157075 41.134675 44.45822 47.78177 56.07868 64.710338 70.687938 75.99605 79.319599 82.64314 85.96669 94.93309 98.91417 105.561267 114.19292">PanopticQuality(PQ)</tspan></text>
<path transform="matrix(1,0,0,-1,-253.158,190.827)" d="M287.90184 2.08708H475.4959V60.543909H287.90184Z" fill="#ffffff"/>
<path transform="matrix(1,0,0,-1,-253.158,190.827)" stroke-width=".3985" stroke-linecap="butt" stroke-miterlimit="10" stroke-linejoin="miter" fill="none" stroke="#000000" d="M287.90184 2.08708H475.4959V60.543909H287.90184Z"/>
<path transform="matrix(1,0,0,-1,47.36499,139.784)" d="M-2.98883-2.98883H2.98883V2.98883H-2.98883Z"/>
<path transform="matrix(1,0,0,-1,47.36499,139.784)" stroke-width=".3985" stroke-linecap="butt" stroke-miterlimit="10" stroke-linejoin="miter" fill="none" stroke="#000000" d="M-2.98883-2.98883H2.98883V2.98883H-2.98883Z"/>
<text xml:space="preserve" transform="matrix(1 0 -0 1 -.0000076293949 219.44101)" font-size="11.9552" font-family="NimbusRomNo9L"><tspan y="-77.067" x="54.14 62.054346 65.37789 71.58264 75.56372">ViT-g</tspan></text>
<path transform="matrix(1,0,0,-1,91.30399,139.784)" d="M2.98883 0C2.98883 1.6507 1.6507 2.98883 0 2.98883-1.6507 2.98883-2.98883 1.6507-2.98883 0-2.98883-1.6507-1.6507-2.98883 0-2.98883 1.6507-2.98883 2.98883-1.6507 2.98883 0ZM0 0"/>
<path transform="matrix(1,0,0,-1,91.30399,139.784)" stroke-width=".3985" stroke-linecap="butt" stroke-miterlimit="10" stroke-linejoin="miter" fill="none" stroke="#000000" d="M2.98883 0C2.98883 1.6507 1.6507 2.98883 0 2.98883-1.6507 2.98883-2.98883 1.6507-2.98883 0-2.98883-1.6507-1.6507-2.98883 0-2.98883 1.6507-2.98883 2.98883-1.6507 2.98883 0ZM0 0"/>
<text xml:space="preserve" transform="matrix(1 0 -0 1 -.0000076293949 219.44101)" font-size="11.9552" font-family="NimbusRomNo9L"><tspan y="-77.067" x="98.079 105.99334 109.31689 115.52164 119.502719">ViT-L</tspan></text>
<path transform="matrix(1,0,0,-1,136.57,139.784)" d="M0 2.98883 2.58841-1.49442H-2.58841Z"/>
<path transform="matrix(1,0,0,-1,136.57,139.784)" stroke-width=".3985" stroke-linecap="butt" stroke-miterlimit="10" stroke-linejoin="miter" fill="none" stroke="#000000" d="M0 2.98883 2.58841-1.49442H-2.58841Z"/>
<text xml:space="preserve" transform="matrix(1 0 -0 1 0 219.44101)" font-size="11.9552" font-family="NimbusRomNo9L"><tspan y="-77.067" x="143.345 151.25934 154.58289 160.78763 164.7687">ViT-B</tspan></text>
<path transform="matrix(1,0,0,-1,182.506,139.784)" d="M0 2.98883 2.24162 0 0-2.98883-2.24162 0Z"/>
<path transform="matrix(1,0,0,-1,182.506,139.784)" stroke-width=".3985" stroke-linecap="butt" stroke-miterlimit="10" stroke-linejoin="miter" fill="none" stroke="#000000" d="M0 2.98883 2.24162 0 0-2.98883-2.24162 0Z"/>
<text xml:space="preserve" transform="matrix(1 0 -0 1 0 219.44101)" font-size="11.9552" font-family="NimbusRomNo9L"><tspan y="-77.067" x="189.28 197.19434 200.51789 206.72263 210.7037">ViT-S</tspan></text>
<path transform="matrix(1,0,0,-1,38.47699,152.653)" stroke-width="1.49442" stroke-linecap="butt" stroke-miterlimit="10" stroke-linejoin="miter" fill="none" stroke="#367dbd" d="M0 0H8.50412 17.00826"/>
<path transform="matrix(1,0,0,-1,38.47699,152.653)" d="M10.49667 0C10.49667 1.10046 9.60458 1.99255 8.50412 1.99255 7.40364 1.99255 6.51157 1.10046 6.51157 0 6.51157-1.10046 7.40364-1.99255 8.50412-1.99255 9.60458-1.99255 10.49667-1.10046 10.49667 0ZM8.50412 0" fill="#367dbd"/>
<path transform="matrix(1,0,0,-1,38.47699,152.653)" stroke-width="1.49442" stroke-linecap="butt" stroke-miterlimit="10" stroke-linejoin="miter" fill="none" stroke="#367dbd" d="M10.49667 0C10.49667 1.10046 9.60458 1.99255 8.50412 1.99255 7.40364 1.99255 6.51157 1.10046 6.51157 0 6.51157-1.10046 7.40364-1.99255 8.50412-1.99255 9.60458-1.99255 10.49667-1.10046 10.49667 0ZM8.50412 0"/>
<text xml:space="preserve" transform="matrix(1 0 -0 1 -.0000076293949 219.441)" font-size="11.9552" font-family="NimbusRomNo9L"><tspan y="-63.482" x="58.224 66.138339 69.46188 75.66663 79.64771 88.279369 94.256969 99.56508 105.54268 108.86623 114.17433 121.14421 130.87575 141.50392 146.81203 151.4626 157.4402 163.4178 169.88558 175.86318 179.84426 189.1454 194.4535">ViT-Adapter+Mask2Former</tspan></text>
<path transform="matrix(1,0,0,-1,38.47699,166.238)" stroke-width="1.49442" stroke-linecap="butt" stroke-dasharray="2.98883,1.99255" stroke-miterlimit="10" stroke-linejoin="miter" fill="none" stroke="#ffb680" d="M0 0H8.50412 17.00826"/>
<path transform="matrix(1,0,0,-1,38.47699,166.238)" d="M10.49667 0C10.49667 1.10046 9.60458 1.99255 8.50412 1.99255 7.40364 1.99255 6.51157 1.10046 6.51157 0 6.51157-1.10046 7.40364-1.99255 8.50412-1.99255 9.60458-1.99255 10.49667-1.10046 10.49667 0ZM8.50412 0" fill="#ffb680"/>
<path transform="matrix(1,0,0,-1,38.47699,166.238)" stroke-width="1.49442" stroke-linecap="butt" stroke-dasharray="2.98883,1.99255" stroke-miterlimit="10" stroke-linejoin="miter" fill="none" stroke="#ffb680" d="M10.49667 0C10.49667 1.10046 9.60458 1.99255 8.50412 1.99255 7.40364 1.99255 6.51157 1.10046 6.51157 0 6.51157-1.10046 7.40364-1.99255 8.50412-1.99255 9.60458-1.99255 10.49667-1.10046 10.49667 0ZM8.50412 0"/>
<text xml:space="preserve" transform="matrix(1 0 -0 1 -.0000076293949 219.44101)" font-size="11.9552" font-family="NimbusRomNo9L"><tspan y="-49.897" x="58.224 65.528629 71.506229 82.1344 92.427829 101.05948 107.371829 118 123.308109 127.95868 133.81673 139.12483 148.09123 156.72289 160.04644 163.36998 168.67809 174.65569 177.97924 181.30278 187.28038">EoMTw/MaskedAttention</tspan></text>
<path transform="matrix(1,0,0,-1,38.47699,179.889)" stroke-width="1.49442" stroke-linecap="butt" stroke-miterlimit="10" stroke-linejoin="miter" fill="none" stroke="#ff6d01" d="M0 0H8.50412 17.00826"/>
<path transform="matrix(1,0,0,-1,38.47699,179.889)" d="M10.49667 0C10.49667 1.10046 9.60458 1.99255 8.50412 1.99255 7.40364 1.99255 6.51157 1.10046 6.51157 0 6.51157-1.10046 7.40364-1.99255 8.50412-1.99255 9.60458-1.99255 10.49667-1.10046 10.49667 0ZM8.50412 0" fill="#ff6d01"/>
<path transform="matrix(1,0,0,-1,38.47699,179.889)" stroke-width="1.49442" stroke-linecap="butt" stroke-miterlimit="10" stroke-linejoin="miter" fill="none" stroke="#ff6d01" d="M10.49667 0C10.49667 1.10046 9.60458 1.99255 8.50412 1.99255 7.40364 1.99255 6.51157 1.10046 6.51157 0 6.51157-1.10046 7.40364-1.99255 8.50412-1.99255 9.60458-1.99255 10.49667-1.10046 10.49667 0ZM8.50412 0"/>
<text xml:space="preserve" transform="matrix(1 0 -0 1 -.0000076293949 219.44101)" font-size="11.9552" font-family="NimbusRomNo9L" font-weight="bold"><tspan y="-36.181" x="58.224 66.19812 72.17572 83.461429">EoMT</tspan></text>
<text xml:space="preserve" transform="matrix(1 0 -0 1 -.0000076293949 219.44101)" font-size="11.9552" font-family="NimbusRomNo9L"><tspan y="-36.181" x="94.423999 98.405078 107.03673 113.01433 116.99541 121.64598">(Ours)</tspan></text>
</svg>
